<?xml version="1.0" standalone="no"?>
<!DOCTYPE svg PUBLIC "-//W3C//DTD SVG 20010904//EN"
 "http://www.w3.org/TR/2001/REC-SVG-20010904/DTD/svg10.dtd">
<svg version="1.0" xmlns="http://www.w3.org/2000/svg"
 width="117.000000pt" height="166.000000pt" viewBox="0 0 117.000000 166.000000"
 preserveAspectRatio="xMidYMid meet">

<g transform="translate(0.000000,166.000000) scale(0.100000,-0.100000)"
fill="#000000" stroke="none">
<path d="M312 1367 l-292 -292 0 -523 0 -522 565 0 565 0 0 523 0 522 -231
250 c-127 138 -249 269 -272 292 l-42 43 -293 -293z m554 -7 c143 -155 262
-290 267 -302 4 -11 6 -241 5 -512 l-3 -491 -550 0 -550 0 0 507 0 508 285
285 c157 157 286 285 286 285 1 0 118 -126 260 -280z"/>
<path d="M265 799 c-27 -3 -38 -7 -22 -7 15 -1 27 -8 27 -15 0 -16 -67 -131
-125 -214 -40 -56 -42 -64 -23 -58 13 4 31 17 40 29 20 24 160 268 156 270 -2
1 -25 -1 -53 -5z"/>
<path d="M588 754 c-33 -17 -51 -48 -43 -73 4 -13 0 -20 -13 -23 -10 -3 -32
-25 -48 -49 -17 -24 -36 -44 -43 -44 -23 0 -37 -31 -22 -49 18 -22 54 -20 82
3 22 17 23 22 13 60 -9 32 -8 45 2 58 11 15 16 16 33 6 27 -17 37 1 17 29 -20
29 -20 34 4 58 16 16 34 20 98 21 42 0 86 4 97 9 13 6 -9 9 -65 9 -57 0 -94
-5 -112 -15z m-94 -190 c16 -41 -14 -68 -43 -40 -13 14 -13 18 4 36 22 24 31
25 39 4z"/>
<path d="M840 735 c0 -8 4 -15 9 -15 5 0 11 7 15 15 3 9 0 15 -9 15 -8 0 -15
-7 -15 -15z"/>
<path d="M679 698 c-17 -24 -44 -54 -58 -67 -14 -13 -20 -20 -13 -17 6 4 12 4
12 1 0 -13 -34 -65 -42 -65 -4 0 -8 -7 -8 -15 0 -9 -36 -76 -81 -150 -85 -141
-95 -177 -51 -183 26 -4 82 48 115 106 28 50 14 38 -28 -23 -36 -53 -61 -75
-84 -75 -6 0 -11 5 -11 11 0 21 152 289 161 283 5 -3 17 0 26 5 17 10 17 10 1
11 -24 0 -23 12 10 70 16 30 34 50 45 50 24 0 21 -19 -9 -76 l-26 -49 25 23
c13 13 33 41 43 63 14 33 15 42 4 49 -7 4 -19 6 -27 3 -20 -8 -16 8 12 50 35
50 24 47 -16 -5z"/>
<path d="M387 649 c-9 -6 -15 -14 -12 -19 3 -4 -6 -28 -20 -52 -33 -58 -33
-78 3 -77 16 1 20 3 10 6 -24 6 -23 16 13 84 34 63 35 74 6 58z"/>
<path d="M291 585 c-34 -67 -38 -99 -6 -48 10 15 29 41 44 58 14 16 17 23 7
15 -18 -14 -19 -14 -8 7 14 25 15 33 5 33 -5 0 -23 -29 -42 -65z"/>
<path d="M792 638 c-17 -23 -52 -97 -52 -113 0 -11 9 -15 33 -14 17 1 24 3 15
6 -24 6 -23 25 7 83 23 46 22 68 -3 38z"/>
<path d="M905 625 c-10 -16 -32 -46 -49 -65 -17 -19 -22 -28 -12 -20 18 14 19
14 7 -7 -7 -14 -8 -23 -2 -23 16 0 83 108 79 127 -3 15 -7 12 -23 -12z"/>
<path d="M957 638 c-15 -11 -13 -13 15 -12 17 0 34 6 36 12 5 16 -30 15 -51 0z"/>
<path d="M1048 640 c-25 -15 -58 -74 -58 -104 0 -42 49 -48 95 -11 20 16 20
16 -2 6 -26 -13 -60 -14 -67 -2 -9 13 14 73 37 99 22 24 21 27 -5 12z"/>
<path d="M1085 640 c3 -5 -3 -18 -15 -30 -22 -22 -19 -25 11 -10 20 11 27 50
8 50 -5 0 -8 -4 -4 -10z"/>
</g>
</svg>
