<?xml version="1.0" standalone="no"?>
<!DOCTYPE svg PUBLIC "-//W3C//DTD SVG 20010904//EN"
 "http://www.w3.org/TR/2001/REC-SVG-20010904/DTD/svg10.dtd">
<svg version="1.0" xmlns="http://www.w3.org/2000/svg"
 width="200.000000pt" height="80.000000pt" viewBox="0 0 200.000000 80.000000"
 preserveAspectRatio="xMidYMid meet">

<g transform="translate(0.000000,80.000000) scale(0.100000,-0.100000)"
fill="#000000" stroke="none">
<path d="M459 660 c-27 -14 -45 -37 -70 -84 -37 -71 -47 -76 -140 -76 -59 0
-61 8 -19 73 17 26 30 52 30 57 0 11 -31 11 -75 0 l-30 -8 28 -1 c15 0 27 -6
27 -11 0 -16 -41 -94 -53 -102 -6 -3 -12 -13 -13 -21 -1 -8 -21 -43 -44 -77
-23 -34 -40 -63 -38 -65 13 -12 50 23 78 72 18 32 38 61 44 65 13 9 140 11
148 2 3 -3 -3 -28 -14 -56 -25 -68 -19 -82 33 -75 23 3 47 11 53 17 8 8 4 9
-17 1 -58 -22 -61 9 -13 114 46 101 92 164 130 181 22 9 25 13 11 13 -11 0
-36 -8 -56 -19z"/>
<path d="M1065 630 c-17 -7 -15 -8 13 -11 l32 -4 -45 -80 c-25 -45 -64 -104
-85 -133 -34 -44 -37 -52 -20 -52 24 0 53 38 134 178 l65 112 -37 -1 c-20 0
-46 -4 -57 -9z"/>
<path d="M1430 599 c-38 -15 -60 -40 -60 -66 0 -14 -12 -34 -28 -48 -15 -13
-34 -35 -41 -49 -8 -14 -20 -26 -27 -26 -8 0 -21 -11 -30 -25 -10 -15 -26 -25
-40 -25 -21 0 -22 3 -14 25 5 13 20 42 34 64 31 48 21 59 -24 26 -41 -30 -39
-30 -33 -5 3 11 1 20 -5 20 -5 0 -12 -10 -16 -23 -3 -13 -17 -40 -31 -61 -14
-20 -25 -41 -25 -46 0 -21 17 -8 37 28 18 31 93 102 82 76 -3 -5 -15 -30 -29
-57 -29 -57 -20 -76 30 -59 22 8 38 8 56 0 20 -10 29 -8 52 9 26 20 30 35 21
92 -5 30 26 54 41 31 9 -13 11 -13 19 -1 6 9 4 19 -5 28 -39 39 -4 74 79 80
37 3 67 3 67 1 0 -8 -48 -64 -95 -112 -22 -22 -32 -34 -22 -27 9 7 17 10 17 7
0 -16 -31 -66 -41 -66 -6 0 -8 -4 -5 -8 3 -5 -31 -69 -75 -142 -87 -148 -96
-180 -50 -180 32 0 87 53 117 112 20 40 9 30 -40 -39 -34 -48 -69 -73 -83 -59
-3 3 28 66 68 141 60 109 78 135 96 135 29 0 77 42 97 84 22 46 20 56 -9 56
-25 0 -25 1 -11 28 18 34 54 68 86 81 20 8 8 10 -55 10 -44 0 -91 -5 -105 -10z
m80 -129 c0 -22 -28 -76 -48 -94 -35 -31 -39 5 -8 59 24 41 56 61 56 35z
m-182 -90 c-4 -18 -36 -26 -50 -12 -7 7 -4 19 8 36 17 23 20 24 32 8 7 -9 11
-23 10 -32z"/>
<path d="M1657 583 c-12 -11 -8 -23 8 -23 8 0 15 7 15 15 0 16 -12 20 -23 8z"/>
<path d="M538 508 c-8 -7 -27 -20 -43 -28 -16 -9 -40 -31 -52 -49 -54 -81 -3
-115 60 -41 29 35 39 40 61 34 30 -7 31 -12 11 -38 -8 -11 -15 -23 -15 -28 0
-19 18 -5 50 36 49 67 78 67 33 1 -7 -11 -13 -25 -13 -32 0 -23 17 -14 30 16
13 32 67 88 76 79 3 -3 -4 -24 -15 -47 -41 -79 -18 -104 52 -57 28 20 37 22
41 10 10 -25 69 -16 114 17 23 17 42 36 42 42 0 6 -12 -1 -27 -15 -60 -56
-107 -61 -101 -11 2 20 10 29 33 35 48 12 74 58 33 58 -30 -1 -60 -25 -91 -75
-27 -43 -81 -82 -92 -65 -3 5 6 37 21 70 15 33 24 63 21 67 -4 3 -23 -7 -44
-22 -23 -19 -34 -23 -30 -13 9 24 -4 30 -29 13 -20 -13 -21 -13 -17 5 8 30
-10 24 -29 -10 -29 -51 -76 -29 -63 30 7 33 4 37 -17 18z m-8 -46 c0 -22 -55
-102 -70 -102 -17 0 -11 32 15 77 27 44 55 57 55 25z m374 4 c-6 -16 -34 -30
-42 -21 -8 7 19 35 34 35 7 0 11 -6 8 -14z"/>
<path d="M1874 490 c-44 -17 -96 -102 -79 -129 10 -18 68 -12 100 9 37 24 28
26 -20 3 -41 -20 -61 -9 -52 29 4 15 17 27 38 33 36 11 59 39 44 54 -6 5 -19
5 -31 1z m6 -30 c-6 -11 -17 -20 -26 -20 -12 0 -12 4 -4 20 6 11 17 20 26 20
12 0 12 -4 4 -20z"/>
<path d="M1602 465 c-27 -34 -45 -82 -38 -100 7 -19 29 -19 66 0 27 14 30 14
30 0 0 -23 15 -18 28 9 6 13 25 40 43 60 24 27 39 36 57 34 14 -2 27 3 29 10
7 18 -28 15 -57 -5 -22 -16 -23 -16 -17 0 10 27 -11 20 -30 -10 -26 -43 -56
-74 -86 -89 -24 -13 -28 -13 -33 1 -3 8 6 37 20 65 28 53 21 67 -12 25z"/>
</g>
</svg>
